<?xml version="1.0" encoding="utf-8"?>
<!-- Generator: Adobe Illustrator 27.5.0, SVG Export Plug-In . SVG Version: 6.00 Build 0)  -->
<svg version="1.1" id="Capa_1" xmlns="http://www.w3.org/2000/svg" xmlns:xlink="http://www.w3.org/1999/xlink" x="0px" y="0px"
	 viewBox="0 0 425.197 425.198" style="enable-background:new 0 0 425.197 425.198;" xml:space="preserve">
<path style="fill:#59A264;" d="M84.98,181.634c-0.063,0.047-0.118,0.101-0.182,0.147l-12.492-17.212l17.212-12.493L229.487,50.489
	l42.668,58.789l7.012-2.276l-47.849-65.928L62.976,163.254l18.836,25.952h8.663L84.98,181.634z"/>
<path style="fill:#89C36B;" d="M241.835,67.502c-0.002,0.001-0.004,0.003-0.007,0.004l0.145,0.2
	c-9.412,6.831-22.533,4.816-29.489-4.452c-0.093-0.071-0.181-0.15-0.256-0.239l-122.71,89.061c6.853,9.443,4.806,22.62-4.538,29.558
	l5.496,7.572h10.772l-7.179-22.113l52.514-17.048c-2.215-11.954,2.12-24.421,12.253-31.776c14.268-10.355,34.615-6.653,45.446,8.271
	c0.931,1.284,1.755,2.61,2.486,3.966l64.258-20.861c0.291-0.235,0.568-0.482,0.875-0.705l0.247,0.341l0.008-0.003L241.835,67.502z"
	/>
<path style="fill:#4E9656;" d="M158.835,118.269c-10.133,7.354-14.467,19.822-12.253,31.776l60.185-19.539
	c-0.731-1.356-1.555-2.683-2.486-3.966C193.45,111.616,173.103,107.913,158.835,118.269z"/>
<path style="fill:#4E9656;" d="M89.518,152.076l-17.212,12.493l12.492,17.212c0.064-0.046,0.119-0.1,0.182-0.147
	C94.324,174.696,96.371,161.519,89.518,152.076z"/>
<path style="fill:#4E9656;" d="M241.973,67.706L229.48,50.493l-17.212,12.493C219.167,72.492,232.467,74.605,241.973,67.706z"/>
<polygon style="fill:#5FBD72;" points="272.147,109.28 271.026,109.645 206.767,130.506 146.583,150.044 94.069,167.093 
	101.248,189.206 108.374,189.206 102.536,171.224 102.758,171.152 267.026,117.823 267.026,117.823 287.255,111.256 
	287.262,111.254 312.569,189.206 319.941,189.206 291.91,102.864 279.167,107.002 272.155,109.278 "/>
<path style="fill:#96CD81;" d="M309.633,180.187c0.002-0.001,0.004-0.003,0.007-0.004l-15.931-49.07c-0.002,0-0.005,0-0.008,0.001
	l0.121,0.372c-11.172,3.627-23.169-2.489-26.796-13.661L122.63,164.701v0l0.134-0.044c3.067,9.446-0.833,19.481-8.865,24.549h63.763
	c-2.011-15.492,6.707-30.508,21.471-35.301c16.768-5.444,34.977,4.361,40.671,21.9c1.453,4.475,1.945,9.021,1.602,13.401h56.499
	c2.549-4.238,6.575-7.614,11.648-9.261L309.633,180.187z"/>
<path style="fill:#5FBD72;" d="M239.805,175.805c-5.694-17.539-23.903-27.343-40.671-21.9
	c-14.764,4.793-23.482,19.809-21.471,35.301h63.744C241.75,184.826,241.258,180.28,239.805,175.805z"/>
<path style="fill:#4E9656;" d="M122.765,164.657l-20.007,6.495l-0.222,0.072l5.838,17.982h5.527
	C121.931,184.139,125.831,174.103,122.765,164.657z"/>
<path style="fill:#4E9656;" d="M297.906,189.206h14.655l-3.007-9.261C304.481,181.592,300.455,184.968,297.906,189.206z"/>
<path style="fill:#4E9656;" d="M293.822,131.485l-6.567-20.229l-20.229,6.567v0C270.653,128.995,282.65,135.112,293.822,131.485z"/>
<path style="fill:#63342F;" d="M347.569,189.206H71.318c-6.556,0-11.919,5.364-11.919,11.92v54.339c0,0,0,0,0,0v-0.104
	c5.135,5.054,10.507,9.886,16.09,14.456v-57.819c-0.001-3.683,1.512-7.043,3.929-9.455c2.412-2.417,5.772-3.93,9.456-3.929h241.14
	c3.683-0.001,7.043,1.512,9.455,3.929c2.417,2.412,3.93,5.772,3.929,9.455v35.404h10.482c2.025,0,3.935,0.514,5.609,1.415v-47.69
	C359.489,194.57,354.125,189.206,347.569,189.206z"/>
<path style="fill:#63342F;" d="M335.254,206.756c-1.359-1.355-3.201-2.183-5.241-2.184H88.874c-2.04,0.001-3.882,0.828-5.241,2.184
	c-1.355,1.359-2.183,3.201-2.184,5.241v62.524c10.694,8.173,22.097,15.382,34.069,21.329c29.617,14.712,62.265,21.954,95.041,24.98
	c16.398,1.514,32.904,2.021,49.367,1.767c0.494-0.008,0.989-0.017,1.483-0.025c-5.939-0.663-10.599-5.732-10.599-11.841V259.32
	c0-6.556,5.364-11.919,11.919-11.919h74.708v-35.404C337.437,209.958,336.61,208.115,335.254,206.756z"/>
<path style="fill:#4A2121;" d="M210.559,320.831c-32.776-3.026-65.424-10.268-95.041-24.98
	c-11.972-5.947-23.375-13.156-34.069-21.329v86.811c0.001,2.04,0.828,3.882,2.184,5.241c1.359,1.355,3.201,2.183,5.241,2.184h241.14
	c2.04-0.001,3.882-0.828,5.241-2.184c1.355-1.359,2.183-3.201,2.184-5.241v-38.681H262.73c-0.447,0-0.887-0.03-1.321-0.078
	c-0.494,0.008-0.989,0.017-1.483,0.025C243.463,322.852,226.957,322.345,210.559,320.831z"/>
<path style="fill:#4A2121;" d="M343.398,322.652v38.681c0.001,3.683-1.512,7.043-3.929,9.455c-2.412,2.417-5.773,3.93-9.455,3.929
	H88.874c-3.683,0.001-7.043-1.513-9.456-3.929c-2.416-2.412-3.93-5.772-3.929-9.455v-91.517c-5.583-4.57-10.955-9.402-16.09-14.456
	v116.845c0,3.677,1.688,6.979,4.328,9.169c0.44,0.365,0.906,0.699,1.396,0.999c0.489,0.3,1.002,0.566,1.534,0.794
	c0.08,0.034,0.164,0.061,0.246,0.094c1.369,0.551,2.857,0.863,4.417,0.863h276.251c1.229,0,2.417-0.189,3.535-0.538
	c4.844-1.515,8.385-6.055,8.385-11.381v-50.968c-1.675,0.9-3.584,1.415-5.609,1.415H343.398z"/>
<path style="fill:#2C0B10;" d="M339.469,202.542c-2.412-2.417-5.773-3.93-9.455-3.929H88.874c-3.683-0.001-7.043,1.512-9.456,3.929
	c-2.416,2.412-3.93,5.772-3.929,9.455v57.819v91.517c-0.001,3.683,1.512,7.043,3.929,9.455c2.412,2.417,5.772,3.93,9.456,3.929
	h241.14c3.683,0.001,7.043-1.513,9.455-3.929c2.417-2.412,3.93-5.772,3.929-9.455v-38.681h-5.96v38.681
	c-0.001,2.04-0.828,3.882-2.184,5.241c-1.359,1.355-3.201,2.183-5.241,2.184H88.874c-2.04-0.001-3.882-0.828-5.241-2.184
	c-1.355-1.359-2.183-3.201-2.184-5.241v-86.811v-62.524c0.001-2.04,0.828-3.882,2.184-5.241c1.359-1.355,3.201-2.183,5.241-2.184
	h241.14c2.04,0.001,3.882,0.828,5.241,2.184c1.355,1.359,2.183,3.201,2.184,5.241v35.404h5.96v-35.404
	C343.398,208.315,341.885,204.954,339.469,202.542z"/>
<path style="fill:#804946;" d="M359.489,248.816c-1.675-0.901-3.584-1.415-5.609-1.415h-10.482h-5.96H262.73
	c-6.556,0-11.919,5.364-11.919,11.919v51.412c0,6.109,4.659,11.178,10.599,11.841c0.434,0.048,0.874,0.078,1.321,0.078h74.708h5.96
	h10.482c2.025,0,3.935-0.514,5.609-1.415c3.747-2.015,6.31-5.974,6.31-10.505V259.32
	C365.799,254.79,363.235,250.831,359.489,248.816z"/>
<path style="fill:#4A2121;" d="M293.137,285.622c-1.186,7.605-7.745,13.43-15.683,13.43c-7.943,0-14.506-5.834-15.685-13.447
	c-0.208,1.33-0.268,2.703-0.122,4.105c0.907,8.73,8.72,15.072,17.45,14.165c8.73-0.907,15.072-8.72,14.165-17.45
	C293.234,286.152,293.179,285.89,293.137,285.622z"/>
<path style="fill:#F2A635;" d="M277.455,299.052c7.938,0,14.497-5.825,15.683-13.43c0.125-0.804,0.21-1.623,0.21-2.462
	c0-8.777-7.116-15.893-15.893-15.893c-8.777,0-15.892,7.115-15.892,15.893c0,0.834,0.083,1.646,0.207,2.446
	C262.948,293.218,269.511,299.052,277.455,299.052z"/>
</svg>
